<?xml version="1.0" standalone="no"?>
<!DOCTYPE svg PUBLIC "-//W3C//DTD SVG 20010904//EN"
 "http://www.w3.org/TR/2001/REC-SVG-20010904/DTD/svg10.dtd">
<svg version="1.0" xmlns="http://www.w3.org/2000/svg"
 width="16.000000pt" height="16.000000pt" viewBox="0 0 16.000000 16.000000"
 preserveAspectRatio="xMidYMid meet">

<g transform="translate(0.000000,16.000000) scale(0.100000,-0.100000)"
fill="#000000" stroke="none">
<path d="M5 143 c1 -10 8 -17 14 -15 6 1 10 -4 9 -10 -2 -7 3 -12 10 -10 8 1
11 -2 8 -7 -4 -5 -2 -12 4 -16 5 -3 10 -1 10 6 0 7 8 5 20 -6 11 -10 18 -21
15 -24 -4 -3 -10 1 -15 9 -5 8 -11 12 -15 9 -3 -3 4 -16 15 -28 18 -22 20 -22
36 -7 12 13 13 20 4 31 -9 10 -8 19 5 38 19 29 16 31 -72 42 -46 6 -51 5 -48
-12z"/>
<path d="M10 67 c0 -38 11 -46 40 -27 13 8 11 14 -12 37 l-28 28 0 -38z"/>
</g>
</svg>
